<?xml version="1.0" encoding="UTF-8"?>
<svg version="1.1" xmlns="http://www.w3.org/2000/svg" width="512" height="512">
<path d="M0 0 C1.93394119 -0.00945648 1.93394119 -0.00945648 3.9069519 -0.019104 C5.30531958 -0.01552005 6.70368601 -0.01141706 8.10205078 -0.00683594 C9.5573025 -0.00818607 11.01255377 -0.0101295 12.46780396 -0.01263428 C15.51910697 -0.01557851 18.5702927 -0.0113168 21.62158203 -0.00195312 C25.4851481 0.00933943 29.34843309 0.00294302 33.21198845 -0.00909805 C36.22193406 -0.01642319 39.23181625 -0.01397899 42.24176407 -0.00884247 C43.66315877 -0.00752983 45.08455969 -0.00906748 46.50594711 -0.01380157 C77.32867627 -0.09382427 77.32867627 -0.09382427 87.59814453 9.23535156 C95.06939004 16.96611017 97.55141495 24.06736294 98.00048828 34.72753906 C98.05882088 36.012752 98.05882088 36.012752 98.11833191 37.32392883 C98.59841104 49.03720609 98.68185666 60.75897573 98.7175293 72.48071289 C98.72917361 75.14463688 98.74765976 77.80730551 98.77905273 80.47094727 C98.82502949 84.37287861 98.83787489 88.27456119 98.84814453 92.17675781 C98.86565262 93.35811813 98.88316071 94.53947845 98.90119934 95.75663757 C98.87979288 103.92237367 97.44532514 109.77465483 92.87395954 116.55562592 C91.28377267 119.51687256 91.04646327 121.17858802 91.04382324 124.5065155 C91.03151924 126.0633606 91.03151924 126.0633606 91.01896667 127.6516571 C91.02818901 129.34473747 91.02818901 129.34473747 91.03759766 131.07202148 C91.03222488 132.26969147 91.02685211 133.46736145 91.02131653 134.70132446 C91.00897151 137.9858213 91.00961967 141.27002737 91.01504707 144.55453277 C91.01684049 148.01909655 90.99937362 151.48355543 90.98327637 154.94807434 C90.94543157 163.78079769 90.93267824 172.61349722 90.92236328 181.44628906 C90.91124028 190.91381556 90.89522602 200.38121333 90.85165071 209.84865457 C90.83655034 213.28008133 90.82726611 216.71129165 90.83305359 220.14275169 C90.92059811 293.21314285 67.12248278 364.05523746 18.42236328 419.25878906 C17.75720703 420.03480469 17.09205078 420.81082031 16.40673828 421.61035156 C5.21319871 434.43444611 -6.96535927 447.00638263 -20.57763672 457.25878906 C-21.76189899 458.18241169 -22.94543931 459.10696045 -24.12841797 460.03222656 C-53.3158723 482.63549145 -101.10355547 514.85829317 -139.57763672 512.25878906 C-142.68583384 511.70672323 -145.63600089 510.84603909 -148.64013672 509.88378906 C-149.90337769 509.49102783 -149.90337769 509.49102783 -151.19213867 509.09033203 C-162.55697266 505.44541658 -173.59930291 500.92307085 -184.57763672 496.25878906 C-185.37298828 495.92121582 -186.16833984 495.58364258 -186.98779297 495.23583984 C-212.27796225 484.32690949 -236.07344129 468.59427152 -256.57763672 450.25878906 C-258.01623047 448.98455078 -258.01623047 448.98455078 -259.48388672 447.68457031 C-262.92470067 444.61453373 -266.34705529 441.55110135 -269.57763672 438.25878906 C-272.49456069 439.56978828 -274.48768713 440.94989702 -276.67919922 443.27050781 C-277.24670898 443.86041504 -277.81421875 444.45032227 -278.39892578 445.05810547 C-279.2917627 445.99275635 -279.2917627 445.99275635 -280.20263672 446.94628906 C-291.71727251 458.69097855 -303.23581449 466.25633373 -320.07763672 466.57128906 C-334.23840846 466.6005435 -344.95765151 461.6180475 -355.26513672 452.13378906 C-363.90268053 443.19423323 -367.97993766 431.73079765 -367.89013672 419.44628906 C-367.88522217 418.6516626 -367.88030762 417.85703613 -367.87524414 417.03833008 C-367.75559809 411.03455243 -367.05516524 405.78558346 -364.57763672 400.25878906 C-364.24892578 399.51757812 -363.92021484 398.77636719 -363.58154297 398.01269531 C-358.01132046 386.89152441 -347.76116515 378.3035649 -339.01513672 369.63378906 C-337.99601918 368.6197046 -336.97713773 367.60538282 -335.95849609 366.59082031 C-333.5009126 364.14408071 -331.04019426 361.70052363 -328.57763672 359.25878906 C-328.97704468 358.36293091 -328.97704468 358.36293091 -329.38452148 357.44897461 C-348.80599675 313.73707235 -360.07310569 270.23914616 -359.99755859 222.18139648 C-360.00492651 219.90983674 -360.01352045 217.6382807 -360.02322388 215.36672974 C-360.04512862 209.29164698 -360.04838757 203.21670096 -360.04647636 197.14158416 C-360.04635555 192.0507866 -360.05496186 186.96001691 -360.06325388 181.86922723 C-360.08345016 169.1905436 -360.08467937 156.51196034 -360.07744676 143.83327255 C-360.07184152 132.83541364 -360.09284887 121.83778547 -360.12580723 110.83998057 C-360.15952622 99.4994319 -360.1742421 88.15902726 -360.1700902 76.81841546 C-360.16802274 70.46985262 -360.17350679 64.12152159 -360.19798279 57.77300072 C-360.22017209 51.82431642 -360.2184373 45.87611914 -360.19805527 39.92743301 C-360.1946348 37.74449221 -360.19977863 35.56151896 -360.21403885 33.37862206 C-360.23213926 30.40342661 -360.21955201 27.42990134 -360.19909668 24.45475769 C-360.21161453 23.58824795 -360.22413238 22.72173822 -360.23702955 21.82897061 C-360.17287373 17.48907756 -359.9830592 15.77816628 -357.22629547 12.24654102 C-353.41622852 9.38718134 -350.7120628 9.13412058 -346.07990074 9.13688374 C-344.92995735 9.13510948 -343.78001395 9.13333523 -342.59522378 9.13150722 C-340.69152078 9.13617914 -340.69152078 9.13617914 -338.74935913 9.14094543 C-337.39199992 9.14067528 -336.03464073 9.13995104 -334.67728198 9.13881034 C-331.72059871 9.13728558 -328.76393948 9.13893131 -325.80725861 9.14295769 C-320.99677671 9.14947481 -316.18630927 9.14914962 -311.37582397 9.14788818 C-305.29706905 9.14676718 -299.21831868 9.14741316 -293.13956423 9.15008899 C-281.19138432 9.1552119 -269.24324665 9.14686867 -257.29507446 9.13346863 C-255.41464913 9.13142191 -253.5342238 9.12937958 -251.65379846 9.12734157 C-247.84634776 9.12318536 -244.03889712 9.11897017 -240.2314465 9.11473405 C-230.4391294 9.10392838 -220.64681164 9.09412507 -210.85449219 9.08569336 C-209.38022382 9.08441648 -209.38022382 9.08441648 -207.87617226 9.08311381 C-191.95537153 9.06989855 -176.0346209 9.07490853 -160.11382072 9.08576492 C-143.77026178 9.09639637 -127.42682766 9.08420731 -111.08329737 9.05168265 C-101.00186175 9.03240524 -90.92075951 9.03139733 -80.83932896 9.05383893 C-73.92765324 9.06758864 -67.01622056 9.05943993 -60.10457842 9.03411434 C-56.11750588 9.02017372 -52.13104712 9.01594465 -48.14399719 9.03793907 C-44.49050871 9.05788872 -40.83815253 9.0500254 -37.18473895 9.02046295 C-35.24398121 9.01188745 -33.3031615 9.03273767 -31.36251009 9.05478793 C-24.3367992 8.96550115 -19.9484513 8.08097601 -14.37636065 3.6775226 C-10.03287594 0.2516231 -5.34195451 0.00753106 0 0 Z " fill="#020101" transform="translate(390.57763671875,-0.2587890625)"/>
<path d="M0 0 C0.751745 -0.00004028 1.50348999 -0.00008057 2.27801514 -0.00012207 C4.74281048 0.0032826 7.20716883 0.02220576 9.671875 0.04296875 C11.3776032 0.05186297 13.0833324 0.06056881 14.7890625 0.0690918 C20.00030948 0.10152885 25.21098446 0.16260692 30.421875 0.23046875 C31.63363403 0.2449707 31.63363403 0.2449707 32.86987305 0.25976562 C37.3648824 0.31513993 41.85879324 0.38994795 46.35290527 0.49594116 C47.7220342 0.5270614 49.09126932 0.55384075 50.46057129 0.57608032 C52.36464434 0.6092418 54.26831347 0.66354721 56.171875 0.71875 C57.23921875 0.74493408 58.3065625 0.77111816 59.40625 0.7980957 C64.39416512 1.51325096 67.40237629 3.08646168 70.75878906 6.8527832 C72.87977276 11.16044753 73.02404189 14.53628864 73.03125 19.2734375 C73.04801285 20.14723053 73.0647757 21.02102356 73.08204651 21.92129517 C73.13139373 24.75361582 73.15267864 27.58529621 73.171875 30.41796875 C73.19689324 32.36484418 73.2231846 34.31170365 73.25073242 36.25854492 C73.30197283 40.12383796 73.34102565 43.98897517 73.37060547 47.85449219 C73.40347173 51.86417659 73.46967731 55.87138084 73.5664978 59.87998962 C73.63853925 62.93404421 73.6849236 65.98847732 73.734375 69.04296875 C73.7643457 70.11248779 73.79431641 71.18200684 73.82519531 72.28393555 C73.83260742 73.26273682 73.84001953 74.24153809 73.84765625 75.25 C73.86953003 76.48907104 73.86953003 76.48907104 73.8918457 77.75317383 C72.55653896 84.7918011 65.94090383 89.99014443 61.08906555 94.81051636 C60.24105808 95.66093825 59.39305061 96.51136013 58.51934594 97.38755238 C56.17377769 99.73777132 53.82382197 102.08343855 51.47187269 104.42726135 C48.93318266 106.95935779 46.40027842 109.49723059 43.86663818 112.03437805 C38.90724514 116.99880606 33.9425388 121.95788738 28.97600023 126.91516571 C23.19552765 132.68524758 17.42029254 138.46055973 11.64525654 144.23608197 C1.34598417 154.53585466 -8.95810801 164.83079199 -19.26489258 175.12304688 C-29.27438709 185.11843805 -39.28035646 195.1173407 -49.2824707 205.12011719 C-49.89916249 205.73684893 -50.51585428 206.35358067 -51.1512337 206.98900126 C-51.76684402 207.60465194 -52.38245434 208.22030261 -53.01671952 208.85460937 C-64.39750278 220.23608153 -75.78156836 231.61426555 -87.16717541 242.99091204 C-91.1985724 247.01928751 -95.22898741 251.04864389 -99.25909996 255.07830429 C-104.16396146 259.98248534 -109.07069858 264.88478095 -113.97982319 269.78469472 C-116.48647966 272.28671913 -118.99232693 274.78954014 -121.49604225 277.29450798 C-124.20340939 280.0031639 -126.91461477 282.707956 -129.62626648 285.412323 C-130.42605146 286.21365658 -131.22583643 287.01499016 -132.04985732 287.84060657 C-132.77044446 288.55796926 -133.49103159 289.27533195 -134.2334547 290.01443291 C-134.85972356 290.63999734 -135.48599242 291.26556177 -136.13123912 291.9100827 C-137.578125 293.23046875 -137.578125 293.23046875 -138.578125 293.23046875 C-138.61785022 292.62933667 -138.65757544 292.02820459 -138.69850445 291.40885639 C-139.06650879 286.86510457 -139.64805013 282.61335195 -140.91059875 278.22709656 C-145.58767852 261.67327168 -147.17312306 243.15955938 -139.578125 227.23046875 C-123.2711461 199.30652316 -94.56196789 176.66272364 -71.15890515 154.89083183 C-61.76858344 146.14495209 -52.53569242 137.23990776 -43.31312978 128.31780398 C-32.06238226 117.43426642 -20.79469412 106.5708719 -9.39775085 95.84028625 C-8.59792491 95.08646648 -7.79809896 94.3326467 -6.97403586 93.5559839 C-3.23162253 90.03042573 0.51665197 86.51149131 4.27557373 83.00354004 C5.58877742 81.76965581 6.90182141 80.53560159 8.2146759 79.30134583 C8.80514342 78.7549027 9.39561093 78.20845957 10.0039714 77.64545757 C13.57473319 74.27582851 16.79423848 71.03914218 17.890625 66.1328125 C17.94839098 62.50077663 17.70853214 60.58879018 15.421875 57.73046875 C11.59511153 55.81708702 8.54874996 55.1301907 4.421875 56.23046875 C-3.14289031 61.14744124 -9.30737833 69.12783756 -15.45170975 75.67121887 C-18.97400757 79.42065068 -22.51003479 83.15708616 -26.04621887 86.89341736 C-26.79826871 87.68826377 -27.55031854 88.48311018 -28.32515776 89.30204284 C-38.88352441 100.44563432 -49.57523316 111.46120067 -60.26546955 122.47810268 C-68.94351481 131.4290023 -77.56846052 140.42151626 -86.08325195 149.52807617 C-93.54077869 157.50352809 -101.08824615 165.38061361 -108.75003117 173.16021782 C-112.78889194 177.26758807 -116.77292475 181.40507488 -120.65102577 185.66503716 C-135.16084832 201.54719089 -147.6929849 214.39673174 -170.14263004 215.42102987 C-180.78436515 215.59347336 -191.31933706 214.72499992 -201.88213325 213.51753354 C-205.94372035 213.08506239 -210.01052228 212.82970797 -214.08784485 212.59934998 C-215.35487905 212.52546775 -216.62191324 212.45158552 -217.92734241 212.37546444 C-219.23947979 212.30369157 -219.23947979 212.30369157 -220.578125 212.23046875 C-216.02760995 206.77599381 -211.20319666 201.71171429 -206.17684937 196.69548035 C-205.34558395 195.86194938 -204.51431854 195.0284184 -203.65786326 194.16962892 C-201.36642292 191.87297796 -199.07277895 189.57855547 -196.77814054 187.28510058 C-194.29783856 184.80500358 -191.82040636 182.32204253 -189.34257507 179.83947754 C-184.49547227 174.9840913 -179.64561593 170.13146467 -174.79464911 165.2799392 C-170.85294289 161.33775708 -166.91202893 157.39478471 -162.97166824 153.45125771 C-151.79614809 142.26694023 -140.6185432 131.08471228 -129.43824808 119.90516802 C-128.83633129 119.30329119 -128.2344145 118.70141435 -127.61425781 118.08129883 C-127.01160526 117.47868716 -126.40895272 116.87607549 -125.78803797 116.25520287 C-116.00641572 106.47398767 -106.22980004 96.68778511 -96.45542531 86.89932796 C-86.41543956 76.8449913 -76.37174309 66.79437473 -66.32414687 56.74764329 C-60.68453999 51.10836864 -55.04648882 45.46755846 -49.41242599 39.82274437 C-44.61960283 35.02083352 -39.82335377 30.2223779 -35.02258371 25.42841151 C-32.57298555 22.98208624 -30.12504145 20.53416326 -27.68140602 18.08188057 C-25.03399532 15.42680218 -22.3805466 12.77791135 -19.72543335 10.13053894 C-18.56425572 8.96164597 -18.56425572 8.96164597 -17.37961996 7.76913899 C-16.66822665 7.06234448 -15.95683335 6.35554998 -15.22388268 5.62733746 C-14.61198818 5.01522559 -14.00009368 4.40311372 -13.36965692 3.77245301 C-9.15303468 0.14317627 -5.39549898 -0.05425693 0 0 Z " fill="#D3D3D3" transform="translate(395.578125,19.76953125)"/>
<path d="M0 0 C98.01 0 196.02 0 297 0 C295.02 2.31 293.04 4.62 291 7 C289.67905095 8.66293021 288.35810613 10.3258644 287.03852654 11.98988152 C277.55505324 23.7291368 267.52600499 35.73559031 251.84407616 37.78765106 C243.56525078 38.54579242 235.26635125 38.26909509 226.97439575 37.90923309 C222.43827463 37.74439079 217.90193103 37.74710689 213.36328125 37.73095703 C204.8116327 37.67684438 196.26948406 37.48439951 187.72150612 37.23574829 C175.13722743 36.87657341 162.54995543 36.74123597 149.96174622 36.59327698 C148.10104221 36.57101666 146.24033967 36.5486331 144.37963867 36.52612305 C143.47160523 36.51531865 142.5635718 36.50451426 141.62802219 36.49338245 C136.24552722 36.42474951 130.865346 36.31904842 125.48424244 36.17899609 C122.15517854 36.09366688 118.82588503 36.02271418 115.49645424 35.95338249 C113.95309078 35.9171463 112.409877 35.87372362 110.86693382 35.82263374 C108.76348069 35.75337419 106.66083548 35.70865502 104.55664062 35.66943359 C103.37992798 35.63675385 102.20321533 35.6040741 100.99084473 35.57040405 C97.90655087 35.76401688 97.90655087 35.76401688 95.63098145 37.81973267 C93.38039568 40.82827617 93.34774769 43.21364997 93.0625 46.9375 C91.49825303 62.09125819 84.96864048 73.36625635 73.45703125 83.2109375 C65.54420466 88.9725823 56.46086018 91.72039149 46.8125 92.375 C42.44212636 92.74480085 40.08507075 93.71589243 37 97 C35.83534613 99.32930773 35.87184631 100.68099002 35.86628723 103.27522278 C35.86202225 104.17318069 35.85775726 105.07113861 35.85336304 105.99630737 C35.85381622 106.98470612 35.85426941 107.97310486 35.85473633 108.99145508 C35.85137772 110.03090775 35.8480191 111.07036041 35.84455872 112.14131165 C35.83501286 115.60073018 35.83310258 119.06010034 35.83203125 122.51953125 C35.82881686 124.93259196 35.82545265 127.34565247 35.82194519 129.75871277 C35.81594186 134.83727468 35.81410609 139.91581956 35.81469727 144.99438477 C35.81479797 151.4470388 35.80124684 157.89958051 35.78392506 164.35220814 C35.77269523 169.34995505 35.77078153 174.34767596 35.77130699 179.34543419 C35.77013945 181.7200426 35.76578801 184.09465197 35.75797462 186.46924782 C35.70423185 204.51866257 35.98952235 222.72713409 39.875 240.4375 C40.13543091 241.67209961 40.13543091 241.67209961 40.40112305 242.93164062 C42.93756011 254.67741875 46.58457107 265.94809705 50.6262207 277.25 C51.06454224 278.47589844 51.06454224 278.47589844 51.51171875 279.7265625 C51.77428467 280.45439941 52.03685059 281.18223633 52.30737305 281.93212891 C52.53593994 282.61452637 52.76450684 283.29692383 53 284 C53.22617004 284.64405792 53.45234009 285.28811584 53.68536377 285.95169067 C53.78919373 286.62763275 53.89302368 287.30357483 54 288 C52.20697454 290.24075226 50.4713629 292.10960745 48.41015625 294.078125 C47.83164413 294.64956238 47.25313202 295.22099976 46.65708923 295.80975342 C44.80360836 297.63520826 42.93351774 299.44254074 41.0625 301.25 C39.80420672 302.48322123 38.54703003 303.71758286 37.29101562 304.953125 C34.2068192 307.98214309 31.10761192 310.99501728 28 314 C25.80550491 311.2635966 24.31000786 308.71420358 23.01953125 305.45703125 C22.66407227 304.56137451 22.30861328 303.66571777 21.94238281 302.74291992 C21.56952148 301.77588135 21.19666016 300.80884277 20.8125 299.8125 C20.2242041 298.28749878 20.2242041 298.28749878 19.62402344 296.73168945 C13.68924889 281.12246846 8.40742983 265.47387644 5.1875 249.0625 C5.00477539 248.13719482 4.82205078 247.21188965 4.63378906 246.25854492 C4.14524369 243.56680441 3.72398688 240.87164911 3.32488632 238.16542339 C3.10378971 236.69177632 2.8732263 235.21952541 2.63431168 233.74866199 C-0.98795778 210.89403315 -0.39260168 187.88152142 -0.30384064 164.81300354 C-0.28652264 159.57300306 -0.28593881 154.33304707 -0.28381348 149.09301758 C-0.26818524 133.85365258 -0.22630166 118.61432361 -0.1875 103.375 C-0.125625 69.26125 -0.06375 35.1475 0 0 Z " fill="#F8C43F" transform="translate(51,30)"/>
<path d="M0 0 C0.07032613 12.38983828 0.12322189 24.77962706 0.15543652 37.16962624 C0.17091831 42.92630825 0.19182536 48.68285115 0.22631836 54.43945312 C0.4488239 92.61293674 0.31673924 130.4371433 -12.30664062 166.97460938 C-13.05755184 169.16811623 -13.77104668 171.37212507 -14.484375 173.578125 C-30.57753719 222.42728104 -61.39436466 268.11908901 -102 300 C-103.06893342 300.86958999 -104.13659133 301.74074968 -105.203125 302.61328125 C-130.30182453 322.98055638 -175.73244657 354.34750881 -209 352 C-212.74251765 351.08986049 -216.35979038 349.87812421 -220 348.625 C-221.0509082 348.26704346 -222.10181641 347.90908691 -223.18457031 347.5402832 C-246.13952796 339.54856991 -268.12806891 329.065729 -288 315 C-289.12588026 314.22334648 -290.25220398 313.44733553 -291.37890625 312.671875 C-299.67297211 306.91204345 -307.41809448 300.66318284 -315 294 C-315.97839844 293.14535156 -316.95679688 292.29070312 -317.96484375 291.41015625 C-324.7031797 285.44523046 -324.7031797 285.44523046 -327 282 C-319.08 274.08 -311.16 266.16 -303 258 C-298.2460858 261.56543565 -294.2675265 264.55247855 -290.125 268.5625 C-277.20159743 280.41785277 -262.37851429 289.68349217 -247 298 C-246.31728027 298.36963867 -245.63456055 298.73927734 -244.93115234 299.12011719 C-237.00769858 303.35610996 -228.86940557 307.01872638 -220.5625 310.4375 C-219.74595947 310.77998779 -218.92941895 311.12247559 -218.08813477 311.4753418 C-208.73187208 315.21613135 -202.60602223 315.78796486 -193.13208008 311.93896484 C-191.55076294 311.25761475 -191.55076294 311.25761475 -189.9375 310.5625 C-188.83494873 310.10311035 -187.73239746 309.6437207 -186.59643555 309.17041016 C-177.86274339 305.48533493 -169.33543471 301.51077751 -161 297 C-159.27523437 296.08347656 -159.27523437 296.08347656 -157.515625 295.1484375 C-142.83636487 287.07816553 -129.49614884 277.11706935 -117 266 C-116.49662109 265.55833496 -115.99324219 265.11666992 -115.47460938 264.66162109 C-85.4888764 238.30381537 -63.78308431 204.31684644 -50 167 C-49.72172363 166.26491211 -49.44344727 165.52982422 -49.15673828 164.77246094 C-44.18072818 151.51711478 -41.47950658 137.9122315 -39 124 C-38.80664062 122.93313965 -38.80664062 122.93313965 -38.609375 121.84472656 C-36.5168821 110.1305029 -35.69067919 98.54779196 -36.60218811 86.67741394 C-40.32649263 37.8145797 -40.32649263 37.8145797 -27.40234375 22.30078125 C-7.26370812 0 -7.26370812 0 0 0 Z " fill="#F9C43F" transform="translate(461,139)"/>
<path d="M0 0 C0.05014237 5.95498484 0.08606363 11.90984174 0.10986328 17.86499023 C0.11980459 19.88291571 0.13336235 21.90082724 0.15087891 23.91870117 C0.25692839 36.46685059 -0.18910463 48.57370766 -2 61 C-2.19475024 62.45977605 -2.38808891 63.91974106 -2.58007812 65.37988281 C-8.28831079 107.92037643 -29.10704004 148.17801555 -57.84375 179.62109375 C-59.79615436 181.77510509 -61.68277359 183.97027726 -63.5625 186.1875 C-67.06809726 190.19617841 -70.93151144 193.57676421 -75 197 C-75.94746094 197.8353125 -76.89492188 198.670625 -77.87109375 199.53125 C-94.47534837 214.09046669 -113.93289076 226.00500686 -134.25 234.625 C-134.99926758 234.94355957 -135.74853516 235.26211914 -136.52050781 235.59033203 C-138.66301459 236.46027606 -140.81212485 237.25189587 -143 238 C-144.09441406 238.38007202 -144.09441406 238.38007202 -145.2109375 238.76782227 C-151.51813761 240.59666306 -155.62286599 239.31936554 -161.5 236.6875 C-162.37019775 236.3157666 -163.24039551 235.9440332 -164.13696289 235.56103516 C-189.57627137 224.48595398 -213.61458198 208.95079525 -233 189 C-229.72646225 185.0717547 -226.37794615 181.22598017 -222.875 177.5 C-222.23304688 176.8090625 -221.59109375 176.118125 -220.9296875 175.40625 C-219 174 -219 174 -217.06523132 174.2386322 C-214.74566359 175.09376361 -213.70478327 175.97905591 -212.02661133 177.77563477 C-211.47536087 178.35616104 -210.92411041 178.93668732 -210.3561554 179.5348053 C-209.47796394 180.47857277 -209.47796394 180.47857277 -208.58203125 181.44140625 C-207.3153613 182.76063821 -206.04775318 184.07896992 -204.77929688 185.39648438 C-202.79210639 187.47644477 -200.81269923 189.56228665 -198.84936523 191.66479492 C-196.94733275 193.69431396 -195.01764946 195.69396444 -193.08203125 197.69140625 C-192.50669144 198.3226088 -191.93135162 198.95381134 -191.33857727 199.60414124 C-188.19136898 202.80886877 -186.02465146 204.40528617 -181.44677734 204.57299805 C-177.38859137 204.26223908 -174.34058733 203.14020629 -170.76953125 201.140625 C-169.08525024 200.21709229 -169.08525024 200.21709229 -167.36694336 199.27490234 C-166.18178871 198.60053242 -164.99698112 197.92555223 -163.8125 197.25 C-162.58108439 196.56425447 -161.34873101 195.88019043 -160.11547852 195.19775391 C-157.61636967 193.81266734 -155.12275223 192.41831223 -152.63183594 191.01855469 C-149.24496767 189.12425804 -145.82135239 187.30686658 -142.3828125 185.5078125 C-141.37500732 184.97639648 -140.36720215 184.44498047 -139.32885742 183.89746094 C-137.44524409 182.90563347 -135.55755138 181.92150292 -133.6652832 180.94628906 C-127.59767076 177.72991766 -127.59767076 177.72991766 -124 172 C-123.40171752 169.00858762 -123.44745685 167.07733299 -124.85546875 164.33203125 C-130.11957016 156.73552799 -137.41019565 150.42731603 -144 144 C-140.19997931 139.46274549 -136.27745071 135.1323003 -132.08415222 130.95716858 C-131.23835074 130.10902711 -131.23835074 130.10902711 -130.37546235 129.24375147 C-128.5055132 127.36984742 -126.63205082 125.49949792 -124.75854492 123.62915039 C-123.40933897 122.27858804 -122.06034554 120.92781334 -120.71154785 119.57684326 C-117.06345851 115.92421059 -113.41223206 112.27472923 -109.76028228 108.62595677 C-105.93824214 104.80645314 -102.11864773 100.98450498 -98.29866028 97.16294861 C-91.89076416 90.7532359 -85.48076802 84.34562899 -79.06958008 77.93920898 C-71.647874 70.52295848 -64.22979608 63.10309353 -56.81356543 55.68136793 C-50.44674111 49.31001455 -44.07798136 42.94060074 -37.70758134 36.57282251 C-33.90207591 32.76887921 -30.09725684 28.964256 -26.29417992 25.1578846 C-22.72515216 21.58598068 -19.15371104 18.01650795 -15.58034515 14.44894409 C-14.26565142 13.13557874 -12.95181923 11.82135035 -11.63888741 10.50622368 C-9.85519188 8.71982003 -8.06848467 6.93648623 -6.28092957 5.15394592 C-5.75487521 4.62566084 -5.22882085 4.09737577 -4.68682545 3.55308205 C-1.11415073 0 -1.11415073 0 0 0 Z " fill="#F9DD96" transform="translate(406,194)"/>
<path d="M0 0 C42.9 0 85.8 0 130 0 C126.14382231 4.49887398 122.34400835 8.80247762 118.16680908 12.96690369 C117.6118141 13.52416423 117.05681911 14.08142477 116.48500609 14.655572 C114.6450245 16.50182867 112.80154396 18.34454902 110.95800781 20.18725586 C109.63013662 21.51812232 108.30246969 22.84919262 106.97499084 24.18045044 C103.38478067 27.77946042 99.79136476 31.37525275 96.19707203 34.97018504 C93.95216807 37.21580098 91.70797811 39.46212792 89.46404266 41.70871162 C81.63822159 49.54376783 73.80983792 57.37625293 65.97900391 65.20629883 C58.67276836 72.5119318 51.37214826 79.82314351 44.07409596 87.13695043 C37.80748774 93.41660565 31.53705932 99.69242862 25.26360393 105.9652434 C21.51657797 109.71201383 17.77113717 113.46033666 14.02951813 117.21250725 C10.51762193 120.73403837 7.00101905 124.2507984 3.48064995 127.7638588 C2.18646121 129.05699642 0.89399561 130.35186111 -0.39665794 131.64852715 C-2.15146279 133.41097975 -3.91224027 135.1672331 -5.67474365 136.92198181 C-6.44778308 137.70273658 -6.44778308 137.70273658 -7.23643947 138.49926418 C-10.7717272 142 -10.7717272 142 -13 142 C-14.41015625 140.56640625 -14.41015625 140.56640625 -16.0625 138.5625 C-18.8181963 135.32930309 -21.6480349 132.21913391 -24.625 129.1875 C-25.33914062 128.45917969 -26.05328125 127.73085937 -26.7890625 126.98046875 C-30.16958911 123.95232919 -33.35218673 121.57805887 -38 121.4375 C-38.639375 121.39496094 -39.27875 121.35242188 -39.9375 121.30859375 C-46.00094997 123.34122755 -49.10961789 131.56817656 -51.8125 136.875 C-52.42254883 138.050625 -52.42254883 138.050625 -53.04492188 139.25 C-54.03655013 141.16325922 -55.01921255 143.08116093 -56 145 C-56.33 145 -56.66 145 -57 145 C-57 115.63 -57 86.26 -57 56 C-53.04 55.01 -49.08 54.02 -45 53 C-42.18442249 51.86555583 -39.60657186 50.76195917 -36.9375 49.375 C-35.92526367 48.85450073 -35.92526367 48.85450073 -34.89257812 48.32348633 C-14.67418672 37.55781812 -7.03467013 21.10401038 0 0 Z " fill="#F9DD96" transform="translate(163,85)"/>
<path d="M0 0 C3.86003219 1.58792934 6.29780488 4.05141493 9.22650146 6.98599243 C9.74036321 7.49814533 10.25422495 8.01029822 10.78365827 8.5379709 C12.50346398 10.25448365 14.2160261 11.97804453 15.92871094 13.70166016 C17.16038278 14.93389615 18.3924952 16.16569189 19.62501526 17.39707947 C22.97007414 20.741564 26.30892623 24.09218374 29.6467123 27.44392443 C33.1358403 30.94554608 36.63062436 34.44151327 40.12481689 37.93807983 C46.74085981 44.56034152 53.3517875 51.18768544 59.96090055 57.81686246 C67.48532225 65.36363078 75.01541669 72.90472793 82.54599714 80.44534993 C98.03699301 95.9572568 113.52083765 111.47628518 129 127 C125.91161738 130.20468802 123.11909691 132.20454239 119.140625 134.234375 C118.02558594 134.80800781 116.91054687 135.38164062 115.76171875 135.97265625 C114.60285156 136.55917969 113.44398438 137.14570313 112.25 137.75 C110.48849609 138.65298828 110.48849609 138.65298828 108.69140625 139.57421875 C105.79769844 141.05636178 102.90055562 142.53131604 100 144 C93.73307254 138.82431983 88.02390834 133.15888771 82.29125977 127.40478516 C81.22641639 126.33965926 80.16135189 125.27475441 79.09608459 124.21005249 C76.22244717 121.3367005 73.3518908 118.46028857 70.48190045 115.58329439 C67.47548797 112.57060597 64.46621961 109.56077286 61.45726013 106.55062866 C55.76767876 100.85794644 50.08065006 95.16272122 44.39454645 89.46656549 C37.91765291 82.97847203 31.43789988 76.49323758 24.95791161 70.00823522 C11.63543582 56.67532326 -1.68346596 43.33884628 -15 30 C-13.51504029 26.21747804 -11.84535097 22.64552392 -9.9609375 19.04296875 C-9.09082031 17.37524414 -9.09082031 17.37524414 -8.203125 15.67382812 C-7.59984375 14.52333984 -6.9965625 13.37285156 -6.375 12.1875 C-5.45847656 10.43276367 -5.45847656 10.43276367 -4.5234375 8.64257812 C-3.01775034 5.7605988 -1.50986725 2.87979095 0 0 Z " fill="#596A95" transform="translate(127,233)"/>
<path d="M0 0 C7.39611769 3.75341901 13.54444033 10.15623206 16.2109375 18.12109375 C17.89534627 27.43488341 17.52450206 35.92303427 12.37109375 44.01953125 C6.73394686 51.39406931 -0.26857337 55.43206047 -9.5 56.77734375 C-18.70151019 57.26163376 -26.31381578 54.70641423 -33.33203125 48.6484375 C-34.88540714 46.95490739 -36.14192611 45.25101902 -37.390625 43.32421875 C-37.80054687 42.76476562 -38.21046875 42.2053125 -38.6328125 41.62890625 C-43.08862439 34.53033697 -42.46708641 25.33649219 -40.765625 17.4140625 C-38.02295328 9.4921491 -32.49340653 3.69678053 -25.078125 -0.11328125 C-16.48766154 -3.99902841 -8.69247617 -3.49908998 0 0 Z " fill="#020200" transform="translate(109.390625,47.67578125)"/>
<path d="M0 0 C3.06268033 1.370801 5.20199357 2.93809422 7.59106445 5.28466797 C8.27469559 5.95231171 8.95832672 6.61995544 9.66267395 7.30783081 C10.38887436 8.02866852 11.11507477 8.74950623 11.86328125 9.4921875 C12.61465866 10.23453644 13.36603607 10.97688538 14.1401825 11.74172974 C15.72386227 13.31091757 17.30475839 14.88291904 18.88305664 16.45751953 C21.30875685 18.87127528 23.75247863 21.26575443 26.19726562 23.66015625 C27.73291624 25.18634836 29.2674604 26.71365476 30.80078125 28.2421875 C31.53710281 28.95897675 32.27342438 29.67576599 33.03205872 30.41427612 C33.69992905 31.08822418 34.36779938 31.76217224 35.0559082 32.45654297 C35.65007034 33.04563446 36.24423248 33.63472595 36.85639954 34.2416687 C38 36 38 36 37.82305908 38.06112671 C36.5298765 41.10746593 34.20957881 43.1561077 31.87109375 45.421875 C31.36199966 45.92672424 30.85290558 46.43157349 30.3283844 46.95172119 C28.7050088 48.55833979 27.071503 50.15419822 25.4375 51.75 C24.3332995 52.83914984 23.22977555 53.92898605 22.12695312 55.01953125 C19.4257471 57.6877076 16.71540937 60.34628291 14 63 C10.86261846 61.60919475 8.74524719 59.98977796 6.33300781 57.56005859 C5.63258362 56.85948334 4.93215942 56.15890808 4.21051025 55.43710327 C3.46557312 54.68184357 2.72063599 53.92658386 1.953125 53.1484375 C1.18192322 52.37440582 0.41072144 51.60037415 -0.3838501 50.80288696 C-2.84396856 48.33158077 -5.29703848 45.85340817 -7.75 43.375 C-9.41750894 41.69745948 -11.08547232 40.02037055 -12.75390625 38.34375 C-16.8412237 34.23439081 -20.92277696 30.11937353 -25 26 C-21.55286117 21.90507084 -18.05875464 17.93506454 -14.2578125 14.16015625 C-13.41992188 13.32548828 -12.58203125 12.49082031 -11.71875 11.63085938 C-10.8628125 10.78330078 -10.006875 9.93574219 -9.125 9.0625 C-8.24585937 8.18787109 -7.36671875 7.31324219 -6.4609375 6.41210938 C-4.3095654 4.27242952 -2.15588208 2.13513403 0 0 Z " fill="#8F7262" transform="translate(96,354)"/>
<path d="M0 0 C3.06268033 1.370801 5.20199357 2.93809422 7.59106445 5.28466797 C8.27469559 5.95231171 8.95832672 6.61995544 9.66267395 7.30783081 C10.38887436 8.02866852 11.11507477 8.74950623 11.86328125 9.4921875 C12.61465866 10.23453644 13.36603607 10.97688538 14.1401825 11.74172974 C15.72386227 13.31091757 17.30475839 14.88291904 18.88305664 16.45751953 C21.30875685 18.87127528 23.75247863 21.26575443 26.19726562 23.66015625 C27.73291624 25.18634836 29.2674604 26.71365476 30.80078125 28.2421875 C31.53710281 28.95897675 32.27342438 29.67576599 33.03205872 30.41427612 C33.69992905 31.08822418 34.36779938 31.76217224 35.0559082 32.45654297 C35.65007034 33.04563446 36.24423248 33.63472595 36.85639954 34.2416687 C38 36 38 36 37.81732178 38.06686401 C36.54375226 41.07912079 34.41035519 42.92239376 32.08984375 45.203125 C31.60294571 45.6857782 31.11604767 46.1684314 30.61439514 46.66571045 C29.0623455 48.2010085 27.50017864 49.72552925 25.9375 51.25 C24.88147643 52.2909722 23.82612962 53.3326314 22.77148438 54.375 C20.18878585 56.92467633 17.59691118 59.46479196 15 62 C11.86261846 60.60919475 9.74524719 58.98977796 7.33300781 56.56005859 C6.63258362 55.85948334 5.93215942 55.15890808 5.21051025 54.43710327 C4.46557312 53.68184357 3.72063599 52.92658386 2.953125 52.1484375 C2.18192322 51.37440582 1.41072144 50.60037415 0.6161499 49.80288696 C-1.84396856 47.33158077 -4.29703848 44.85340817 -6.75 42.375 C-8.41750894 40.69745948 -10.08547232 39.02037055 -11.75390625 37.34375 C-15.8412237 33.23439081 -19.92277696 29.11937353 -24 25 C-20.61833266 20.98708272 -17.20369863 17.07903415 -13.4765625 13.37890625 C-12.68378906 12.58935547 -11.89101562 11.79980469 -11.07421875 10.98632812 C-10.26597656 10.18646484 -9.45773438 9.38660156 -8.625 8.5625 C-7.79355469 7.73556641 -6.96210938 6.90863281 -6.10546875 6.05664062 C-4.0725896 4.03544469 -2.03740037 2.01663665 0 0 Z " fill="#8E7262" transform="translate(135,315)"/>
<path d="M0 0 C13.19531929 -0.07928424 26.37164445 0.17052097 39.5625 0.5 C46.306875 0.665 53.05125 0.83 60 1 C60 20.14 60 39.28 60 59 C55.68435482 55.30087556 51.64496133 51.76872487 47.66308594 47.77661133 C47.1792041 47.29287552 46.69532227 46.80913971 46.19677734 46.31074524 C44.62358966 44.73687 43.05395929 43.15949933 41.484375 41.58203125 C40.38077432 40.47656141 39.27694963 39.37131517 38.1729126 38.26628113 C35.28508611 35.3746615 32.40027483 32.48005234 29.51611328 29.58477783 C26.5776703 26.63607832 23.63637364 23.69022836 20.6953125 20.74414062 C15.53190726 15.57119696 10.37097955 10.39579297 5.21185303 5.21858215 C3.47608143 3.47752981 1.73913251 1.73769364 0 0 Z " fill="#ECECEC" transform="translate(176,252)"/>
<path d="M0 0 C1.20141602 1.22265625 1.20141602 1.22265625 2.69140625 3.0625 C8.68120845 10.10676828 15.38320598 16.48770545 21.9375 23 C23.30296745 24.36044318 24.66820386 25.72111831 26.03320312 27.08203125 C29.35280886 30.3907031 32.67553273 33.69621322 36 37 C34.37469943 40.46302919 32.61755896 42.5598027 29.75 45.125 C29.00234375 45.80820312 28.2546875 46.49140625 27.484375 47.1953125 C20.52645571 52.2496501 12.23175079 51.6822872 4 51 C-3.14414965 49.31835972 -7.83589125 43.7627436 -12 38 C-15.44267197 32.17393974 -16.07362826 25.61777421 -15 19 C-12.93457952 13.14065113 -7.5689198 0 0 0 Z " fill="#8F7262" transform="translate(58,394)"/>
<path d="M0 0 C3.73716178 0.87853713 5.13010387 2.29902003 7.16015625 5.5078125 C8.07275113 10.01374973 7.71529754 13.39752992 5.66015625 17.5078125 C2.28873453 20.20494988 -0.55516486 20.81446944 -4.83984375 20.5078125 C-8.46075131 18.93350486 -9.63239659 17.81898324 -11.83984375 14.5078125 C-12.35838329 9.98911081 -12.53345263 6.82745678 -9.90234375 3.0078125 C-6.32530335 0.08777952 -4.5043027 -0.34590638 0 0 Z " fill="#050505" transform="translate(427.83984375,52.4921875)"/>
<path d="M0 0 C2.59066888 2.13730183 3.68983059 3.65321178 4.4453125 6.93359375 C4.63881381 9.15885879 4.57089704 10.83843562 4 13 C0.95615245 16.56352884 -0.94312966 17.81458415 -5.5625 18.625 C-9 18 -9 18 -11.9375 16 C-14.2472973 12.64029484 -14.68169593 10.91074695 -14.43359375 6.93359375 C-13.75194607 3.89381354 -12.19767713 2.13303956 -10 0 C-6.71607413 -1.64196294 -3.41514199 -0.96514882 0 0 Z " fill="#F4D993" transform="translate(102,66)"/>
</svg>
